<?xml version="1.0" standalone="no"?>
<!DOCTYPE svg PUBLIC "-//W3C//DTD SVG 20010904//EN"
 "http://www.w3.org/TR/2001/REC-SVG-20010904/DTD/svg10.dtd">
<svg version="1.0" xmlns="http://www.w3.org/2000/svg"
 width="179.000000pt" height="156.000000pt" viewBox="0 0 179.000000 156.000000"
 preserveAspectRatio="xMidYMid meet">

<g transform="translate(0.000000,156.000000) scale(0.100000,-0.100000)"
fill="#000000" stroke="none">
<path d="M448 1392 c-14 -6 -2 -31 78 -166 52 -87 94 -161 94 -164 0 -2 17
-32 38 -66 21 -34 51 -84 66 -112 l27 -50 -137 -240 c-177 -309 -176 -308
-176 -348 0 -38 75 -176 95 -176 7 0 48 64 92 141 44 77 116 202 160 277 l80
137 318 5 317 5 30 25 c16 14 30 29 30 34 0 5 14 31 30 58 51 83 71 77 -292
80 -312 3 -323 4 -333 23 -5 11 -39 70 -75 130 -68 116 -79 135 -150 259 -25
44 -59 95 -77 115 -31 35 -33 36 -115 38 -46 2 -91 -1 -100 -5z"/>
<path d="M1118 1392 c-16 -2 -28 -6 -28 -8 0 -3 70 -122 156 -264 l155 -260
110 0 c60 0 109 2 109 6 0 16 -283 473 -307 496 -24 22 -38 27 -98 30 -38 2
-82 2 -97 0z"/>
<path d="M397 1349 c-33 -52 -97 -160 -97 -163 0 -2 -40 -74 -90 -160 -105
-183 -108 -197 -55 -291 19 -34 41 -67 49 -74 18 -15 3 -37 181 274 l137 240
-38 70 c-21 39 -45 83 -55 99 l-17 28 -15 -23z"/>
<path d="M1037 1323 c-13 -21 -54 -89 -90 -151 l-67 -114 56 -100 c47 -83 58
-98 69 -87 15 16 175 303 175 315 0 4 -10 21 -23 38 -13 17 -37 55 -53 83 -16
29 -32 53 -36 53 -4 0 -18 -17 -31 -37z"/>
<path d="M301 734 c-29 -52 -52 -97 -50 -98 2 -2 81 -7 174 -10 l170 -7 29 53
c16 29 42 77 58 106 l29 52 -179 0 -178 0 -53 -96z"/>
<path d="M894 583 c4 -10 43 -82 88 -160 l81 -143 114 0 114 0 -12 23 c-6 12
-45 84 -87 160 l-77 137 -113 0 c-105 0 -114 -1 -108 -17z"/>
<path d="M628 153 l-57 -98 287 -3 c187 -1 296 1 313 8 25 11 119 151 119 178
0 9 -70 12 -303 12 l-302 0 -57 -97z"/>
</g>
</svg>
